<svg viewBox="300.5769 304.5532 448.8463 140.8935" width="5000" height="1569.507201017364" xmlns="http://www.w3.org/2000/svg" xmlns:xlink="http://www.w3.org/1999/xlink" preserveAspectRatio="none"><defs></defs><style>.companyName {fill:#000000;fill-opacity:1;}.text {fill:#000000;fill-opacity:1;}</style><g opacity="1" transform="rotate(0 300.5769 427.7483)">
<svg width="448.8463" height="17.6984" x="300.5769" y="427.7483" version="1.1" preserveAspectRatio="none" viewBox="0.76 -31.24 1034 40.76">
  <g transform="matrix(1 0 0 1 0 0)" class="text"><path d="M27.44-2.20Q27.60-1.92 27.60-1.56L27.60-1.56Q27.60-0.92 27.14-0.46Q26.68 0 26.04 0L26.04 0Q25 0 24.56-0.96L24.56-0.96L21.88-7.44L6.40-7.44L3.72-0.96Q3.40 0 2.28 0L2.28 0Q1.60 0 1.18-0.46Q0.76-0.92 0.76-1.56L0.76-1.56Q0.76-1.96 0.88-2.24L0.88-2.24L12.64-30.16Q13.08-31.24 14.16-31.24L14.16-31.24Q15.24-31.24 15.64-30.16L15.64-30.16L27.44-2.20ZM7.52-10.12L20.80-10.12L14.16-26.16L7.52-10.12Z M44.28-22.08Q49.28-22.08 52.40-18.24L52.40-18.24Q52.72-17.88 52.72-17.40L52.72-17.40Q52.72-16.76 52.04-16.28L52.04-16.28Q51.68-16.04 51.28-16.04L51.28-16.04Q50.68-16.04 50.12-16.64L50.12-16.64Q48.92-17.96 47.48-18.62Q46.04-19.28 44.28-19.28L44.28-19.28Q42.08-19.28 40.36-18.22Q38.64-17.16 37.70-15.24Q36.76-13.32 36.76-10.92L36.76-10.92Q36.76-8.56 37.76-6.66Q38.76-4.76 40.56-3.68Q42.36-2.60 44.68-2.60L44.68-2.60Q47.88-2.60 49.84-4.32L49.84-4.32Q50.36-4.76 50.92-4.76L50.92-4.76Q51.40-4.76 51.80-4.44L51.80-4.44Q52.36-3.96 52.36-3.36L52.36-3.36Q52.36-2.84 51.96-2.48L51.96-2.48Q49.08 0.20 44.68 0.20L44.68 0.20Q41.56 0.20 39.08-1.26Q36.60-2.72 35.18-5.26Q33.76-7.80 33.76-10.92L33.76-10.92Q33.76-14.12 35.12-16.66Q36.48-19.20 38.88-20.64Q41.28-22.08 44.28-22.08L44.28-22.08Z M72.72-22.08Q75.88-22.08 78.40-20.64Q80.92-19.20 82.38-16.64Q83.84-14.08 83.84-10.92L83.84-10.92Q83.84-7.76 82.40-5.22Q80.96-2.68 78.42-1.24Q75.88 0.20 72.72 0.20L72.72 0.20Q69.56 0.20 67.02-1.24Q64.48-2.68 63.04-5.22Q61.60-7.76 61.60-10.92L61.60-10.92Q61.60-14.08 63.04-16.64Q64.48-19.20 67.02-20.64Q69.56-22.08 72.72-22.08L72.72-22.08ZM72.72-19.28Q70.44-19.28 68.58-18.20Q66.72-17.12 65.66-15.22Q64.60-13.32 64.60-10.92L64.60-10.92Q64.60-8.56 65.66-6.66Q66.72-4.76 68.58-3.68Q70.44-2.60 72.72-2.60L72.72-2.60Q75.04-2.60 76.88-3.68Q78.72-4.76 79.76-6.66Q80.80-8.56 80.80-10.92L80.80-10.92Q80.80-13.32 79.76-15.22Q78.72-17.12 76.88-18.20Q75.04-19.28 72.72-19.28L72.72-19.28Z M116.88-22.12Q119.24-22.12 121.06-21Q122.88-19.88 123.90-17.82Q124.92-15.76 124.92-13.04L124.92-13.04L124.92-1.52Q124.92-0.84 124.50-0.42Q124.08 0 123.40 0L123.40 0Q122.72 0 122.28-0.42Q121.84-0.84 121.84-1.52L121.84-1.52L121.84-13.04Q121.84-15.88 120.38-17.54Q118.92-19.20 116.56-19.20L116.56-19.20Q114.04-19.20 112.48-17.52Q110.92-15.84 110.96-13.12L110.96-13.12L110.96-13.04L110.96-1.52Q110.96-0.84 110.54-0.42Q110.12 0 109.44 0L109.44 0Q108.76 0 108.32-0.42Q107.88-0.84 107.88-1.52L107.88-1.52L107.88-13.04Q107.88-15.88 106.42-17.54Q104.96-19.20 102.60-19.20L102.60-19.20Q100.12-19.20 98.52-17.56Q96.92-15.92 96.92-13.36L96.92-13.36L96.92-1.52Q96.92-0.84 96.50-0.42Q96.08 0 95.40 0L95.40 0Q94.72 0 94.28-0.42Q93.84-0.84 93.84-1.52L93.84-1.52L93.84-20.32Q93.84-21 94.28-21.44Q94.72-21.88 95.40-21.88L95.40-21.88Q96.08-21.88 96.50-21.44Q96.92-21 96.92-20.32L96.92-20.32L96.92-19.44Q98.04-20.72 99.58-21.42Q101.12-22.12 102.92-22.12L102.92-22.12Q105.12-22.12 106.88-21.12Q108.64-20.12 109.68-18.32L109.68-18.32Q110.84-20.12 112.70-21.12Q114.56-22.12 116.88-22.12L116.88-22.12Z M146.84-22.08Q149.96-22.08 152.50-20.62Q155.04-19.16 156.50-16.60Q157.96-14.04 157.96-10.92L157.96-10.92Q157.96-7.80 156.54-5.26Q155.12-2.72 152.66-1.26Q150.20 0.20 147.16 0.20L147.16 0.20Q144.56 0.20 142.40-0.90Q140.24-2 138.84-3.92L138.84-3.92L138.84 7.80Q138.84 8.48 138.40 8.92Q137.96 9.36 137.28 9.36L137.28 9.36Q136.60 9.36 136.18 8.92Q135.76 8.48 135.76 7.80L135.76 7.80L135.76-1.16Q135.72-1.28 135.72-1.52L135.72-1.52L135.72-10.92Q135.72-14.04 137.18-16.60Q138.64-19.16 141.18-20.62Q143.72-22.08 146.84-22.08L146.84-22.08ZM146.84-2.60Q149.12-2.60 150.98-3.68Q152.84-4.76 153.90-6.66Q154.96-8.56 154.96-10.92L154.96-10.92Q154.96-13.28 153.90-15.18Q152.84-17.08 150.98-18.18Q149.12-19.28 146.84-19.28L146.84-19.28Q144.56-19.28 142.72-18.18Q140.88-17.08 139.82-15.18Q138.76-13.28 138.76-10.92L138.76-10.92Q138.76-10.24 138.80-9.92L138.80-9.92Q138.84-9.84 138.84-9.72L138.84-9.72Q139.24-6.60 141.46-4.60Q143.68-2.60 146.84-2.60L146.84-2.60Z M177.96-22.08Q181.08-22.08 183.62-20.62Q186.16-19.16 187.62-16.60Q189.08-14.04 189.08-10.92L189.08-10.92L189.08-1.52Q189.08-0.88 188.64-0.44Q188.20 0 187.52 0L187.52 0Q186.84 0 186.40-0.42Q185.96-0.84 185.96-1.52L185.96-1.52L185.96-3.92Q184.56-2 182.40-0.90Q180.24 0.20 177.64 0.20L177.64 0.20Q174.60 0.20 172.14-1.26Q169.68-2.72 168.26-5.26Q166.84-7.80 166.84-10.92L166.84-10.92Q166.84-14.04 168.30-16.60Q169.76-19.16 172.30-20.62Q174.84-22.08 177.96-22.08L177.96-22.08ZM177.96-2.60Q180.24-2.60 182.08-3.68Q183.92-4.76 184.98-6.66Q186.04-8.56 186.04-10.92L186.04-10.92Q186.04-13.28 184.98-15.18Q183.92-17.08 182.08-18.18Q180.24-19.28 177.96-19.28L177.96-19.28Q175.68-19.28 173.82-18.18Q171.96-17.08 170.90-15.18Q169.84-13.28 169.84-10.92L169.84-10.92Q169.84-8.56 170.90-6.66Q171.96-4.76 173.82-3.68Q175.68-2.60 177.96-2.60L177.96-2.60Z M209.44-22.12Q212.28-22.12 214.54-20.92Q216.80-19.72 218.08-17.42Q219.36-15.12 219.36-11.92L219.36-11.92L219.36-1.52Q219.36-0.88 218.92-0.44Q218.48 0 217.84 0L217.84 0Q217.16 0 216.72-0.44Q216.28-0.88 216.28-1.52L216.28-1.52L216.28-11.92Q216.28-15.48 214.30-17.34Q212.32-19.20 209.12-19.20L209.12-19.20Q207.16-19.20 205.58-18.44Q204.00-17.68 203.08-16.34Q202.16-15 202.16-13.36L202.16-13.36L202.16-1.52Q202.16-0.84 201.74-0.42Q201.32 0 200.64 0L200.64 0Q199.96 0 199.52-0.42Q199.08-0.84 199.08-1.52L199.08-1.52L199.08-20.32Q199.08-21 199.52-21.44Q199.96-21.88 200.64-21.88L200.64-21.88Q201.32-21.88 201.74-21.44Q202.16-21 202.16-20.32L202.16-20.32L202.16-18.96Q203.48-20.44 205.36-21.28Q207.24-22.12 209.44-22.12L209.44-22.12ZM207.04-30Q208.12-30 208.92-29.68Q209.72-29.36 210.76-28.72L210.76-28.72Q211.68-28.16 212.14-27.96Q212.60-27.76 213.20-27.76L213.20-27.76Q214.44-27.76 215.16-28.56L215.16-28.56Q215.76-29.24 216.40-29.24L216.40-29.24Q216.72-29.24 217.04-29.04L217.04-29.04Q217.76-28.68 217.76-27.92L217.76-27.92Q217.76-27.48 217.44-27.04L217.44-27.04Q215.84-25.08 213.24-25.08L213.24-25.08Q212.12-25.08 211.24-25.44Q210.36-25.80 209.36-26.40L209.36-26.40Q208.52-26.92 208.00-27.12Q207.48-27.32 206.96-27.32L206.96-27.32Q205.48-27.32 204.32-25.92L204.32-25.92Q204.08-25.56 203.72-25.36Q203.36-25.16 203.00-25.16L203.00-25.16Q202.64-25.16 202.32-25.36L202.32-25.36Q202.04-25.52 201.86-25.82Q201.68-26.12 201.68-26.44L201.68-26.44Q201.68-26.92 201.96-27.32L201.96-27.32Q202.96-28.60 204.28-29.30Q205.60-30 207.04-30L207.04-30Z M240.12-22.08Q243.24-22.08 245.78-20.62Q248.32-19.16 249.78-16.60Q251.24-14.04 251.24-10.92L251.24-10.92L251.24-1.52Q251.24-0.88 250.80-0.44Q250.36 0 249.68 0L249.68 0Q249.00 0 248.56-0.42Q248.12-0.84 248.12-1.52L248.12-1.52L248.12-3.92Q246.72-2 244.56-0.90Q242.40 0.20 239.80 0.20L239.80 0.20Q236.76 0.20 234.30-1.26Q231.84-2.72 230.42-5.26Q229.00-7.80 229.00-10.92L229.00-10.92Q229.00-14.04 230.46-16.60Q231.92-19.16 234.46-20.62Q237.00-22.08 240.12-22.08L240.12-22.08ZM240.12-2.60Q242.40-2.60 244.24-3.68Q246.08-4.76 247.14-6.66Q248.20-8.56 248.20-10.92L248.20-10.92Q248.20-13.28 247.14-15.18Q246.08-17.08 244.24-18.18Q242.40-19.28 240.12-19.28L240.12-19.28Q237.84-19.28 235.98-18.18Q234.12-17.08 233.06-15.18Q232.00-13.28 232.00-10.92L232.00-10.92Q232.00-8.56 233.06-6.66Q234.12-4.76 235.98-3.68Q237.84-2.60 240.12-2.60L240.12-2.60Z M271.60-22.12Q274.44-22.12 276.70-20.92Q278.96-19.72 280.24-17.42Q281.52-15.12 281.52-11.92L281.52-11.92L281.52-1.52Q281.52-0.88 281.08-0.44Q280.64 0 280.00 0L280.00 0Q279.32 0 278.88-0.44Q278.44-0.88 278.44-1.52L278.44-1.52L278.44-11.92Q278.44-15.48 276.46-17.34Q274.48-19.20 271.28-19.20L271.28-19.20Q269.32-19.20 267.74-18.44Q266.16-17.68 265.24-16.34Q264.32-15 264.32-13.36L264.32-13.36L264.32-1.52Q264.32-0.84 263.90-0.42Q263.48 0 262.80 0L262.80 0Q262.12 0 261.68-0.42Q261.24-0.84 261.24-1.52L261.24-1.52L261.24-20.32Q261.24-21 261.68-21.44Q262.12-21.88 262.80-21.88L262.80-21.88Q263.48-21.88 263.90-21.44Q264.32-21 264.32-20.32L264.32-20.32L264.32-18.96Q265.64-20.44 267.52-21.28Q269.40-22.12 271.60-22.12L271.60-22.12Z M313.36-20.72Q313.40-20.60 313.40-20.36L313.40-20.36L313.40-10.96Q313.40-7.84 311.94-5.28Q310.48-2.72 307.94-1.26Q305.40 0.20 302.28 0.20L302.28 0.20Q299.16 0.20 296.62-1.26Q294.08-2.72 292.62-5.28Q291.16-7.84 291.16-10.96L291.16-10.96Q291.16-14.08 292.58-16.62Q294-19.16 296.46-20.62Q298.92-22.08 301.96-22.08L301.96-22.08Q304.56-22.08 306.72-20.98Q308.88-19.88 310.28-17.96L310.28-17.96L310.28-29.68Q310.28-30.36 310.72-30.80Q311.16-31.24 311.84-31.24L311.84-31.24Q312.52-31.24 312.94-30.80Q313.36-30.36 313.36-29.68L313.36-29.68L313.36-20.72ZM302.28-2.60Q304.56-2.60 306.40-3.70Q308.24-4.80 309.30-6.70Q310.36-8.60 310.36-10.96L310.36-10.96Q310.36-11.64 310.32-11.96L310.32-11.96Q310.28-12.04 310.28-12.16L310.28-12.16Q309.88-15.28 307.66-17.28Q305.44-19.28 302.28-19.28L302.28-19.28Q300-19.28 298.14-18.20Q296.28-17.12 295.22-15.22Q294.16-13.32 294.16-10.96L294.16-10.96Q294.16-8.60 295.22-6.70Q296.28-4.80 298.14-3.70Q300-2.60 302.28-2.60L302.28-2.60Z M334.56-22.08Q337.72-22.08 340.24-20.64Q342.76-19.20 344.22-16.64Q345.68-14.08 345.68-10.92L345.68-10.92Q345.68-7.76 344.24-5.22Q342.80-2.68 340.26-1.24Q337.72 0.20 334.56 0.20L334.56 0.20Q331.40 0.20 328.86-1.24Q326.32-2.68 324.88-5.22Q323.44-7.76 323.44-10.92L323.44-10.92Q323.44-14.08 324.88-16.64Q326.32-19.20 328.86-20.64Q331.40-22.08 334.56-22.08L334.56-22.08ZM334.56-19.28Q332.28-19.28 330.42-18.20Q328.56-17.12 327.50-15.22Q326.44-13.32 326.44-10.92L326.44-10.92Q326.44-8.56 327.50-6.66Q328.56-4.76 330.42-3.68Q332.28-2.60 334.56-2.60L334.56-2.60Q336.88-2.60 338.72-3.68Q340.56-4.76 341.60-6.66Q342.64-8.56 342.64-10.92L342.64-10.92Q342.64-13.32 341.60-15.22Q340.56-17.12 338.72-18.20Q336.88-19.28 334.56-19.28L334.56-19.28Z M370.60-29.72Q370.60-30.40 371.04-30.82Q371.48-31.24 372.12-31.24L372.12-31.24Q372.80-31.24 373.22-30.82Q373.64-30.40 373.64-29.72L373.64-29.72L373.64-6.92Q373.64-5.20 374.34-4.12Q375.04-3.04 376.12-3.04L376.12-3.04L377.12-3.04Q377.72-3.04 378.08-2.62Q378.44-2.20 378.44-1.52L378.44-1.52Q378.44-0.84 377.94-0.42Q377.44 0 376.64 0L376.64 0L376.12 0Q373.68 0 372.14-1.94Q370.60-3.88 370.60-6.92L370.60-6.92L370.60-29.72Z M395.44-22.08Q398.56-22.08 401.10-20.62Q403.64-19.16 405.10-16.60Q406.56-14.04 406.56-10.92L406.56-10.92L406.56-1.52Q406.56-0.88 406.12-0.44Q405.68 0 405 0L405 0Q404.32 0 403.88-0.42Q403.44-0.84 403.44-1.52L403.44-1.52L403.44-3.92Q402.04-2 399.88-0.90Q397.72 0.20 395.12 0.20L395.12 0.20Q392.08 0.20 389.62-1.26Q387.16-2.72 385.74-5.26Q384.32-7.80 384.32-10.92L384.32-10.92Q384.32-14.04 385.78-16.60Q387.24-19.16 389.78-20.62Q392.32-22.08 395.44-22.08L395.44-22.08ZM395.44-2.60Q397.72-2.60 399.56-3.68Q401.40-4.76 402.46-6.66Q403.52-8.56 403.52-10.92L403.52-10.92Q403.52-13.28 402.46-15.18Q401.40-17.08 399.56-18.18Q397.72-19.28 395.44-19.28L395.44-19.28Q393.16-19.28 391.30-18.18Q389.44-17.08 388.38-15.18Q387.32-13.28 387.32-10.92L387.32-10.92Q387.32-8.56 388.38-6.66Q389.44-4.76 391.30-3.68Q393.16-2.60 395.44-2.60L395.44-2.60Z M441.60-22.08Q444.56-22.08 446.84-20.70Q449.12-19.32 450.38-16.88Q451.64-14.44 451.64-11.32L451.64-11.32Q451.64-10.68 451.24-10.30Q450.84-9.92 450.20-9.92L450.20-9.92L434.04-9.92Q434.36-6.64 436.60-4.60Q438.84-2.56 442.20-2.56L442.20-2.56Q443.64-2.56 445.10-3.06Q446.56-3.56 447.44-4.32L447.44-4.32Q447.96-4.72 448.52-4.72L448.52-4.72Q448.96-4.72 449.40-4.40L449.40-4.40Q449.92-3.92 449.92-3.32L449.92-3.32Q449.92-2.80 449.48-2.40L449.48-2.40Q448.16-1.28 446.12-0.54Q444.08 0.20 442.20 0.20L442.20 0.20Q439 0.20 436.48-1.22Q433.96-2.64 432.54-5.18Q431.12-7.72 431.12-10.92L431.12-10.92Q431.12-14.16 432.46-16.70Q433.80-19.24 436.18-20.66Q438.56-22.08 441.60-22.08L441.60-22.08ZM441.60-19.32Q438.56-19.32 436.56-17.44Q434.56-15.56 434.12-12.48L434.12-12.48L448.76-12.48Q448.44-15.56 446.52-17.44Q444.60-19.32 441.60-19.32L441.60-19.32Z M481.08-20.72Q481.12-20.60 481.12-20.36L481.12-20.36L481.12-10.96Q481.12-7.84 479.66-5.28Q478.20-2.72 475.66-1.26Q473.12 0.20 470 0.20L470 0.20Q466.88 0.20 464.34-1.26Q461.80-2.72 460.34-5.28Q458.88-7.84 458.88-10.96L458.88-10.96Q458.88-14.08 460.30-16.62Q461.72-19.16 464.18-20.62Q466.64-22.08 469.68-22.08L469.68-22.08Q472.28-22.08 474.44-20.98Q476.60-19.88 478-17.96L478-17.96L478-29.68Q478-30.36 478.44-30.80Q478.88-31.24 479.56-31.24L479.56-31.24Q480.24-31.24 480.66-30.80Q481.08-30.36 481.08-29.68L481.08-29.68L481.08-20.72ZM470-2.60Q472.28-2.60 474.12-3.70Q475.96-4.80 477.02-6.70Q478.08-8.60 478.08-10.96L478.08-10.96Q478.08-11.64 478.04-11.96L478.04-11.96Q478-12.04 478-12.16L478-12.16Q477.60-15.28 475.38-17.28Q473.16-19.28 470-19.28L470-19.28Q467.72-19.28 465.86-18.20Q464-17.12 462.94-15.22Q461.88-13.32 461.88-10.96L461.88-10.96Q461.88-8.60 462.94-6.70Q464-4.80 465.86-3.70Q467.72-2.60 470-2.60L470-2.60Z M502.28-22.08Q505.40-22.08 507.94-20.62Q510.48-19.16 511.94-16.60Q513.40-14.04 513.40-10.92L513.40-10.92L513.40-1.52Q513.40-0.88 512.96-0.44Q512.52 0 511.84 0L511.84 0Q511.16 0 510.72-0.42Q510.28-0.84 510.28-1.52L510.28-1.52L510.28-3.92Q508.88-2 506.72-0.90Q504.56 0.20 501.96 0.20L501.96 0.20Q498.92 0.20 496.46-1.26Q494-2.72 492.58-5.26Q491.16-7.80 491.16-10.92L491.16-10.92Q491.16-14.04 492.62-16.60Q494.08-19.16 496.62-20.62Q499.16-22.08 502.28-22.08L502.28-22.08ZM502.28-2.60Q504.56-2.60 506.40-3.68Q508.24-4.76 509.30-6.66Q510.36-8.56 510.36-10.92L510.36-10.92Q510.36-13.28 509.30-15.18Q508.24-17.08 506.40-18.18Q504.56-19.28 502.28-19.28L502.28-19.28Q500-19.28 498.14-18.18Q496.28-17.08 495.22-15.18Q494.16-13.28 494.16-10.92L494.16-10.92Q494.16-8.56 495.22-6.66Q496.28-4.76 498.14-3.68Q500-2.60 502.28-2.60L502.28-2.60Z M544.44-20.72Q544.48-20.60 544.48-20.36L544.48-20.36L544.48-10.96Q544.48-7.84 543.02-5.28Q541.56-2.72 539.02-1.26Q536.48 0.20 533.36 0.20L533.36 0.20Q530.24 0.20 527.70-1.26Q525.16-2.72 523.70-5.28Q522.24-7.84 522.24-10.96L522.24-10.96Q522.24-14.08 523.66-16.62Q525.08-19.16 527.54-20.62Q530.00-22.08 533.04-22.08L533.04-22.08Q535.64-22.08 537.80-20.98Q539.96-19.88 541.36-17.96L541.36-17.96L541.36-29.68Q541.36-30.36 541.80-30.80Q542.24-31.24 542.92-31.24L542.92-31.24Q543.60-31.24 544.02-30.80Q544.44-30.36 544.44-29.68L544.44-29.68L544.44-20.72ZM533.36-2.60Q535.64-2.60 537.48-3.70Q539.32-4.80 540.38-6.70Q541.44-8.60 541.44-10.96L541.44-10.96Q541.44-11.64 541.40-11.96L541.40-11.96Q541.36-12.04 541.36-12.16L541.36-12.16Q540.96-15.28 538.74-17.28Q536.52-19.28 533.36-19.28L533.36-19.28Q531.08-19.28 529.22-18.20Q527.36-17.12 526.30-15.22Q525.24-13.32 525.24-10.96L525.24-10.96Q525.24-8.60 526.30-6.70Q527.36-4.80 529.22-3.70Q531.08-2.60 533.36-2.60L533.36-2.60Z M580.76-22.08Q585.76-22.08 588.88-18.24L588.88-18.24Q589.20-17.88 589.20-17.40L589.20-17.40Q589.20-16.76 588.52-16.28L588.52-16.28Q588.16-16.04 587.76-16.04L587.76-16.04Q587.16-16.04 586.60-16.64L586.60-16.64Q585.40-17.96 583.96-18.62Q582.52-19.28 580.76-19.28L580.76-19.28Q578.56-19.28 576.84-18.22Q575.12-17.16 574.18-15.24Q573.24-13.32 573.24-10.92L573.24-10.92Q573.24-8.56 574.24-6.66Q575.24-4.76 577.04-3.68Q578.84-2.60 581.16-2.60L581.16-2.60Q584.36-2.60 586.32-4.32L586.32-4.32Q586.84-4.76 587.40-4.76L587.40-4.76Q587.88-4.76 588.28-4.44L588.28-4.44Q588.84-3.96 588.84-3.36L588.84-3.36Q588.84-2.84 588.44-2.48L588.44-2.48Q585.56 0.20 581.16 0.20L581.16 0.20Q578.04 0.20 575.56-1.26Q573.08-2.72 571.66-5.26Q570.24-7.80 570.24-10.92L570.24-10.92Q570.24-14.12 571.60-16.66Q572.96-19.20 575.36-20.64Q577.76-22.08 580.76-22.08L580.76-22.08Z M609.20-22.08Q612.36-22.08 614.88-20.64Q617.40-19.20 618.86-16.64Q620.32-14.08 620.32-10.92L620.32-10.92Q620.32-7.76 618.88-5.22Q617.44-2.68 614.90-1.24Q612.36 0.20 609.20 0.20L609.20 0.20Q606.04 0.20 603.50-1.24Q600.96-2.68 599.52-5.22Q598.08-7.76 598.08-10.92L598.08-10.92Q598.08-14.08 599.52-16.64Q600.96-19.20 603.50-20.64Q606.04-22.08 609.20-22.08L609.20-22.08ZM609.20-19.28Q606.92-19.28 605.06-18.20Q603.20-17.12 602.14-15.22Q601.08-13.32 601.08-10.92L601.08-10.92Q601.08-8.56 602.14-6.66Q603.20-4.76 605.06-3.68Q606.92-2.60 609.20-2.60L609.20-2.60Q611.52-2.60 613.36-3.68Q615.20-4.76 616.24-6.66Q617.28-8.56 617.28-10.92L617.28-10.92Q617.28-13.32 616.24-15.22Q615.20-17.12 613.36-18.20Q611.52-19.28 609.20-19.28L609.20-19.28Z M640.68-22.12Q643.52-22.12 645.78-20.92Q648.04-19.72 649.32-17.42Q650.60-15.12 650.60-11.92L650.60-11.92L650.60-1.52Q650.60-0.88 650.16-0.44Q649.72 0 649.08 0L649.08 0Q648.40 0 647.96-0.44Q647.52-0.88 647.52-1.52L647.52-1.52L647.52-11.92Q647.52-15.48 645.54-17.34Q643.56-19.20 640.36-19.20L640.36-19.20Q638.40-19.20 636.82-18.44Q635.24-17.68 634.32-16.34Q633.40-15 633.40-13.36L633.40-13.36L633.40-1.52Q633.40-0.84 632.98-0.42Q632.56 0 631.88 0L631.88 0Q631.20 0 630.76-0.42Q630.32-0.84 630.32-1.52L630.32-1.52L630.32-20.32Q630.32-21 630.76-21.44Q631.20-21.88 631.88-21.88L631.88-21.88Q632.56-21.88 632.98-21.44Q633.40-21 633.40-20.32L633.40-20.32L633.40-18.96Q634.72-20.44 636.60-21.28Q638.48-22.12 640.68-22.12L640.68-22.12Z M684.68-22.08Q687.32-22.08 689.28-21.18Q691.24-20.28 692.44-18.68L692.44-18.68Q692.76-18.16 692.76-17.76L692.76-17.76Q692.76-17.08 692.12-16.68L692.12-16.68Q691.84-16.48 691.36-16.48L691.36-16.48Q690.52-16.48 689.96-17.08L689.96-17.08Q688.00-19.32 684.60-19.32L684.60-19.32Q682.40-19.32 681.08-18.42Q679.76-17.52 679.76-16.16L679.76-16.16Q679.76-14.72 681.00-13.86Q682.24-13 685.40-12.48L685.40-12.48Q689.68-11.76 691.52-10.14Q693.36-8.52 693.36-6.12L693.36-6.12Q693.36-4.28 692.26-2.84Q691.16-1.40 689.20-0.60Q687.24 0.20 684.76 0.20L684.76 0.20Q682.28 0.20 680.00-0.64Q677.72-1.48 676.32-3L676.32-3Q675.92-3.48 675.92-3.92L675.92-3.92Q675.92-4.60 676.56-5.12L676.56-5.12Q677.04-5.48 677.56-5.48L677.56-5.48Q678.24-5.48 678.72-4.92L678.72-4.92Q679.68-3.80 681.26-3.20Q682.84-2.60 684.76-2.60L684.76-2.60Q687.56-2.60 688.96-3.56Q690.36-4.52 690.40-6.08L690.40-6.08Q690.40-7.52 689.00-8.48Q687.60-9.44 684.56-9.92L684.56-9.92Q680.64-10.56 678.70-12.14Q676.76-13.72 676.76-15.96L676.76-15.96Q676.76-18.88 679.02-20.48Q681.28-22.08 684.68-22.08L684.68-22.08Z M712.64-22.08Q715.76-22.08 718.30-20.62Q720.84-19.16 722.30-16.60Q723.76-14.04 723.76-10.92L723.76-10.92L723.76-1.52Q723.76-0.88 723.32-0.44Q722.88 0 722.20 0L722.20 0Q721.52 0 721.08-0.42Q720.64-0.84 720.64-1.52L720.64-1.52L720.64-3.92Q719.24-2 717.08-0.90Q714.92 0.20 712.32 0.20L712.32 0.20Q709.28 0.20 706.82-1.26Q704.36-2.72 702.94-5.26Q701.52-7.80 701.52-10.92L701.52-10.92Q701.52-14.04 702.98-16.60Q704.44-19.16 706.98-20.62Q709.52-22.08 712.64-22.08L712.64-22.08ZM712.64-2.60Q714.92-2.60 716.76-3.68Q718.60-4.76 719.66-6.66Q720.72-8.56 720.72-10.92L720.72-10.92Q720.72-13.28 719.66-15.18Q718.60-17.08 716.76-18.18Q714.92-19.28 712.64-19.28L712.64-19.28Q710.36-19.28 708.50-18.18Q706.64-17.08 705.58-15.18Q704.52-13.28 704.52-10.92L704.52-10.92Q704.52-8.56 705.58-6.66Q706.64-4.76 708.50-3.68Q710.36-2.60 712.64-2.60L712.64-2.60Z M732.96-29.72Q732.96-30.40 733.40-30.82Q733.84-31.24 734.48-31.24L734.48-31.24Q735.16-31.24 735.58-30.82Q736.00-30.40 736.00-29.72L736.00-29.72L736.00-6.92Q736.00-5.20 736.70-4.12Q737.40-3.04 738.48-3.04L738.48-3.04L739.48-3.04Q740.08-3.04 740.44-2.62Q740.80-2.20 740.80-1.52L740.80-1.52Q740.80-0.84 740.30-0.42Q739.80 0 739.00 0L739.00 0L738.48 0Q736.04 0 734.50-1.94Q732.96-3.88 732.96-6.92L732.96-6.92L732.96-29.72Z M767.36-21.88Q768.04-21.88 768.48-21.46Q768.92-21.04 768.92-20.36L768.92-20.36L768.92-1.56Q768.92-0.88 768.48-0.44Q768.04 0 767.36 0L767.36 0Q766.68 0 766.26-0.44Q765.84-0.88 765.84-1.56L765.84-1.56L765.84-2.92Q764.52-1.44 762.64-0.60Q760.76 0.24 758.56 0.24L758.56 0.24Q755.72 0.24 753.46-0.96Q751.20-2.16 749.92-4.46Q748.64-6.76 748.64-9.96L748.64-9.96L748.64-20.36Q748.64-21 749.08-21.44Q749.52-21.88 750.16-21.88L750.16-21.88Q750.84-21.88 751.28-21.44Q751.72-21 751.72-20.36L751.72-20.36L751.72-9.96Q751.72-6.40 753.70-4.54Q755.68-2.68 758.88-2.68L758.88-2.68Q760.84-2.68 762.42-3.44Q764.00-4.20 764.92-5.54Q765.84-6.88 765.84-8.52L765.84-8.52L765.84-20.36Q765.84-21.04 766.26-21.46Q766.68-21.88 767.36-21.88L767.36-21.88Z M801.16-20.72Q801.20-20.60 801.20-20.36L801.20-20.36L801.20-10.96Q801.20-7.84 799.74-5.28Q798.28-2.72 795.74-1.26Q793.20 0.20 790.08 0.20L790.08 0.20Q786.96 0.20 784.42-1.26Q781.88-2.72 780.42-5.28Q778.96-7.84 778.96-10.96L778.96-10.96Q778.96-14.08 780.38-16.62Q781.80-19.16 784.26-20.62Q786.72-22.08 789.76-22.08L789.76-22.08Q792.36-22.08 794.52-20.98Q796.68-19.88 798.08-17.96L798.08-17.96L798.08-29.68Q798.08-30.36 798.52-30.80Q798.96-31.24 799.64-31.24L799.64-31.24Q800.32-31.24 800.74-30.80Q801.16-30.36 801.16-29.68L801.16-29.68L801.16-20.72ZM790.08-2.60Q792.36-2.60 794.20-3.70Q796.04-4.80 797.10-6.70Q798.16-8.60 798.16-10.96L798.16-10.96Q798.16-11.64 798.12-11.96L798.12-11.96Q798.08-12.04 798.08-12.16L798.08-12.16Q797.68-15.28 795.46-17.28Q793.24-19.28 790.08-19.28L790.08-19.28Q787.80-19.28 785.94-18.20Q784.08-17.12 783.02-15.22Q781.96-13.32 781.96-10.96L781.96-10.96Q781.96-8.60 783.02-6.70Q784.08-4.80 785.94-3.70Q787.80-2.60 790.08-2.60L790.08-2.60Z M845.24-21.76Q846.16-21.40 846.16-20.60L846.16-20.60Q846.16-20.24 846.00-19.88L846.00-19.88L833.04 8.60Q832.68 9.52 831.88 9.52L831.88 9.52Q831.48 9.52 831.16 9.36L831.16 9.36Q830.24 9 830.24 8.16L830.24 8.16Q830.24 7.80 830.40 7.44L830.40 7.44L834.36-1.32L834.36-1.36L825.44-19.84Q825.28-20.16 825.28-20.56L825.28-20.56Q825.28-21.40 826.16-21.76L826.16-21.76Q826.48-21.92 826.88-21.92L826.88-21.92Q827.72-21.92 828.08-21.08L828.08-21.08L835.88-4.64L843.32-21.04Q843.72-21.92 844.52-21.92L844.52-21.92Q844.88-21.92 845.24-21.76L845.24-21.76Z M869.80-20.72Q869.76-20.60 869.76-20.36L869.76-20.36L869.76-10.96Q869.76-7.84 871.22-5.28Q872.68-2.72 875.22-1.26Q877.76 0.20 880.88 0.20L880.88 0.20Q884.00 0.20 886.54-1.26Q889.08-2.72 890.54-5.28Q892.00-7.84 892.00-10.96L892.00-10.96Q892.00-14.08 890.58-16.62Q889.16-19.16 886.70-20.62Q884.24-22.08 881.20-22.08L881.20-22.08Q878.60-22.08 876.44-20.98Q874.28-19.88 872.88-17.96L872.88-17.96L872.88-29.68Q872.88-30.36 872.44-30.80Q872.00-31.24 871.32-31.24L871.32-31.24Q870.64-31.24 870.22-30.80Q869.80-30.36 869.80-29.68L869.80-29.68L869.80-20.72ZM880.88-2.60Q878.60-2.60 876.76-3.70Q874.92-4.80 873.86-6.70Q872.80-8.60 872.80-10.96L872.80-10.96Q872.80-11.64 872.84-11.96L872.84-11.96Q872.88-12.04 872.88-12.16L872.88-12.16Q873.28-15.28 875.50-17.28Q877.72-19.28 880.88-19.28L880.88-19.28Q883.16-19.28 885.02-18.20Q886.88-17.12 887.94-15.22Q889.00-13.32 889.00-10.96L889.00-10.96Q889.00-8.60 887.94-6.70Q886.88-4.80 885.02-3.70Q883.16-2.60 880.88-2.60L880.88-2.60Z M911.36-22.08Q914.32-22.08 916.60-20.70Q918.88-19.32 920.14-16.88Q921.40-14.44 921.40-11.32L921.40-11.32Q921.40-10.68 921.00-10.30Q920.60-9.92 919.96-9.92L919.96-9.92L903.80-9.92Q904.12-6.64 906.36-4.60Q908.60-2.56 911.96-2.56L911.96-2.56Q913.40-2.56 914.86-3.06Q916.32-3.56 917.20-4.32L917.20-4.32Q917.72-4.72 918.28-4.72L918.28-4.72Q918.72-4.72 919.16-4.40L919.16-4.40Q919.68-3.92 919.68-3.32L919.68-3.32Q919.68-2.80 919.24-2.40L919.24-2.40Q917.92-1.28 915.88-0.54Q913.84 0.20 911.96 0.20L911.96 0.20Q908.76 0.20 906.24-1.22Q903.72-2.64 902.30-5.18Q900.88-7.72 900.88-10.92L900.88-10.92Q900.88-14.16 902.22-16.70Q903.56-19.24 905.94-20.66Q908.32-22.08 911.36-22.08L911.36-22.08ZM911.36-19.32Q908.32-19.32 906.32-17.44Q904.32-15.56 903.88-12.48L903.88-12.48L918.52-12.48Q918.20-15.56 916.28-17.44Q914.36-19.32 911.36-19.32L911.36-19.32Z M929.80-29.72Q929.80-30.40 930.24-30.82Q930.68-31.24 931.32-31.24L931.32-31.24Q932.00-31.24 932.42-30.82Q932.84-30.40 932.84-29.72L932.84-29.72L932.84-6.92Q932.84-5.20 933.54-4.12Q934.24-3.04 935.32-3.04L935.32-3.04L936.32-3.04Q936.92-3.04 937.28-2.62Q937.64-2.20 937.64-1.52L937.64-1.52Q937.64-0.84 937.14-0.42Q936.64 0 935.84 0L935.84 0L935.32 0Q932.88 0 931.34-1.94Q929.80-3.88 929.80-6.92L929.80-6.92L929.80-29.72Z M945.08-29.72Q945.08-30.40 945.52-30.82Q945.96-31.24 946.60-31.24L946.60-31.24Q947.28-31.24 947.70-30.82Q948.12-30.40 948.12-29.72L948.12-29.72L948.12-6.92Q948.12-5.20 948.82-4.12Q949.52-3.04 950.60-3.04L950.60-3.04L951.60-3.04Q952.20-3.04 952.56-2.62Q952.92-2.20 952.92-1.52L952.92-1.52Q952.92-0.84 952.42-0.42Q951.92 0 951.12 0L951.12 0L950.60 0Q948.16 0 946.62-1.94Q945.08-3.88 945.08-6.92L945.08-6.92L945.08-29.72Z M969.28-22.08Q972.24-22.08 974.52-20.70Q976.80-19.32 978.06-16.88Q979.32-14.44 979.32-11.32L979.32-11.32Q979.32-10.68 978.92-10.30Q978.52-9.92 977.88-9.92L977.88-9.92L961.72-9.92Q962.04-6.64 964.28-4.60Q966.52-2.56 969.88-2.56L969.88-2.56Q971.32-2.56 972.78-3.06Q974.24-3.56 975.12-4.32L975.12-4.32Q975.64-4.72 976.20-4.72L976.20-4.72Q976.64-4.72 977.08-4.40L977.08-4.40Q977.60-3.92 977.60-3.32L977.60-3.32Q977.60-2.80 977.16-2.40L977.16-2.40Q975.84-1.28 973.80-0.54Q971.76 0.20 969.88 0.20L969.88 0.20Q966.68 0.20 964.16-1.22Q961.64-2.64 960.22-5.18Q958.80-7.72 958.80-10.92L958.80-10.92Q958.80-14.16 960.14-16.70Q961.48-19.24 963.86-20.66Q966.24-22.08 969.28-22.08L969.28-22.08ZM969.28-19.32Q966.24-19.32 964.24-17.44Q962.24-15.56 961.80-12.48L961.80-12.48L976.44-12.48Q976.12-15.56 974.20-17.44Q972.28-19.32 969.28-19.32L969.28-19.32Z M1003.76-2.80Q1005.16-2.80 1005.16-1.40L1005.16-1.40Q1005.16 0 1003.76 0L1003.76 0L988.92 0Q987.52 0 987.52-1.40L987.52-1.40Q987.52-2.08 987.80-2.40L987.80-2.40L1000.92-19.08L988.76-19.08Q987.36-19.08 987.36-20.48L987.36-20.48Q987.36-21.88 988.76-21.88L988.76-21.88L1003.60-21.88Q1005.00-21.88 1005.00-20.48L1005.00-20.48Q1005.00-19.84 1004.68-19.44L1004.68-19.44L991.68-2.80L1003.76-2.80Z M1023.64-22.08Q1026.76-22.08 1029.30-20.62Q1031.84-19.16 1033.30-16.60Q1034.76-14.04 1034.76-10.92L1034.76-10.92L1034.76-1.52Q1034.76-0.88 1034.32-0.44Q1033.88 0 1033.20 0L1033.20 0Q1032.52 0 1032.08-0.42Q1031.64-0.84 1031.64-1.52L1031.64-1.52L1031.64-3.92Q1030.24-2 1028.08-0.90Q1025.92 0.20 1023.32 0.20L1023.32 0.20Q1020.28 0.20 1017.82-1.26Q1015.36-2.72 1013.94-5.26Q1012.52-7.80 1012.52-10.92L1012.52-10.92Q1012.52-14.04 1013.98-16.60Q1015.44-19.16 1017.98-20.62Q1020.52-22.08 1023.64-22.08L1023.64-22.08ZM1023.64-2.60Q1025.92-2.60 1027.76-3.68Q1029.60-4.76 1030.66-6.66Q1031.72-8.56 1031.72-10.92L1031.72-10.92Q1031.72-13.28 1030.66-15.18Q1029.60-17.08 1027.76-18.18Q1025.92-19.28 1023.64-19.28L1023.64-19.28Q1021.36-19.28 1019.50-18.18Q1017.64-17.08 1016.58-15.18Q1015.52-13.28 1015.52-10.92L1015.52-10.92Q1015.52-8.56 1016.58-6.66Q1017.64-4.76 1019.50-3.68Q1021.36-2.60 1023.64-2.60L1023.64-2.60Z"/></g>
</svg>
</g><g opacity="1" transform="rotate(0 360.2389 304.5532)">
<svg width="329.5221" height="104.1085" x="360.2389" y="304.5532" version="1.1" preserveAspectRatio="none" viewBox="1.1719 -28.7305 157.94920000000002 49.9024">
  <g transform="matrix(1 0 0 1 0 0)" class="companyName"><path d="M18.28-28.73L18.28-28.73Q20.68-28.73 23.18-28.29Q25.68-27.85 28.05-26.95Q30.41-26.05 32.50-24.70Q34.59-23.34 36.15-21.52Q37.71-19.71 38.62-17.42Q39.53-15.14 39.53-12.36L39.53-12.36Q39.53-9.59 38.55-7.23Q37.58-4.86 35.82-3.14Q34.06-1.43 31.62-0.45Q29.18 0.53 26.25 0.53L26.25 0.53Q24.86 0.53 23.38 0.32Q21.89 0.12 20.41-0.31Q18.93-0.74 17.49-1.38Q16.05-2.01 14.75-2.89L14.75-2.89Q13.20-1.37 11.18-0.52Q9.16 0.33 6.91 0.33L6.91 0.33Q5.70 0.33 4.65 0.06Q3.59-0.21 2.82-0.72Q2.05-1.23 1.61-1.95Q1.17-2.68 1.17-3.55L1.17-3.55Q1.17-4.32 1.55-4.98Q1.93-5.64 2.63-6.15Q3.32-6.66 4.29-6.95Q5.25-7.25 6.41-7.25L6.41-7.25Q9.80-7.25 14.45-4.75L14.45-4.75Q15.31-5.82 15.86-7.17L15.86-7.17Q16.46-8.67 16.81-10.26Q17.15-11.86 17.41-13.44Q17.68-15.02 17.96-16.52Q18.24-18.03 18.74-19.36Q19.24-20.68 20.05-21.79Q20.86-22.89 22.17-23.67L22.17-23.67Q22.36-23.77 22.52-23.77L22.52-23.77Q22.79-23.77 23.04-23.57Q23.28-23.38 23.28-23.03L23.28-23.03Q23.28-22.62 22.91-22.40L22.91-22.40Q21.88-21.80 21.22-20.89Q20.57-19.98 20.14-18.85Q19.71-17.71 19.45-16.41Q19.20-15.10 18.96-13.67L18.96-13.67Q18.77-12.50 18.54-11.22Q18.30-9.94 17.95-8.68Q17.60-7.42 17.06-6.22Q16.52-5.02 15.74-4.00L15.74-4.00Q15.78-3.98 15.79-3.97Q15.80-3.96 15.84-3.95L15.84-3.95Q18.32-2.46 21.00-1.70Q23.67-0.94 26.23-0.94L26.23-0.94Q29.00-0.94 31.20-1.86Q33.40-2.77 34.92-4.33Q36.45-5.88 37.25-7.95Q38.05-10.02 38.05-12.32L38.05-12.32Q38.05-14.67 37.27-16.69Q36.48-18.71 35.13-20.37Q33.77-22.03 31.90-23.32Q30.04-24.61 27.88-25.48Q25.72-26.35 23.35-26.81Q20.98-27.27 18.59-27.27L18.59-27.27Q15.39-27.27 12.74-26.73Q10.10-26.19 8.19-25.16Q6.29-24.12 5.23-22.62Q4.18-21.11 4.18-19.20L4.18-19.20Q4.18-18.11 4.50-17.27Q4.82-16.43 5.32-15.81Q5.82-15.20 6.41-14.77Q6.99-14.34 7.50-14.07Q8.01-13.81 8.37-13.69Q8.73-13.57 8.79-13.55L8.79-13.55Q9.04-13.50 9.19-13.29Q9.34-13.09 9.34-12.83L9.34-12.83Q9.34-12.50 9.10-12.32Q8.87-12.15 8.59-12.15L8.59-12.15Q8.20-12.15 7.62-12.33Q7.03-12.52 6.38-12.90Q5.72-13.28 5.07-13.86Q4.41-14.43 3.89-15.21Q3.36-16.00 3.04-16.99Q2.71-17.99 2.71-19.20L2.71-19.20Q2.71-21.41 3.84-23.17Q4.96-24.94 7.01-26.17Q9.06-27.40 11.92-28.07Q14.79-28.73 18.28-28.73ZM13.40-3.63L13.40-3.63Q11.37-4.71 9.63-5.25Q7.89-5.80 6.45-5.80L6.45-5.80Q5.63-5.80 4.93-5.62Q4.24-5.43 3.73-5.12Q3.22-4.80 2.93-4.39Q2.64-3.98 2.64-3.54L2.64-3.54Q2.64-3.11 2.90-2.68Q3.16-2.25 3.70-1.91Q4.24-1.58 5.04-1.37Q5.84-1.15 6.91-1.15L6.91-1.15Q8.75-1.15 10.42-1.81Q12.09-2.46 13.40-3.63Z M44.47-8.03L44.47-8.03Q44.39-7.50 44.28-7.04Q44.16-6.58 44.05-6.24Q43.95-5.90 43.87-5.68Q43.79-5.47 43.77-5.45L43.77-5.45Q43.57-5 43.09-5L43.09-5Q42.81-5 42.58-5.21Q42.34-5.41 42.34-5.72L42.34-5.72Q42.34-5.84 42.38-5.90Q42.42-5.96 42.50-6.13Q42.58-6.31 42.70-6.72Q42.81-7.13 42.99-7.99L42.99-7.99Q42.66-7.99 42.30-8.01Q41.95-8.03 41.65-8.14Q41.35-8.26 41.15-8.52Q40.96-8.77 40.96-9.22L40.96-9.22Q40.96-9.55 41.14-10.12Q41.33-10.68 41.64-11.23Q41.95-11.78 42.34-12.18Q42.73-12.58 43.13-12.58L43.13-12.58Q43.57-12.58 43.86-12.25Q44.14-11.91 44.30-11.44Q44.45-10.96 44.52-10.43Q44.59-9.90 44.59-9.51L44.59-9.51Q44.92-9.51 45.24-9.52Q45.57-9.53 45.86-9.53L45.86-9.53Q46.97-9.53 47.56-9.04Q48.14-8.55 48.14-7.44L48.14-7.44Q48.14-6.99 48.09-6.50Q48.03-6.02 47.95-5.50Q47.87-4.98 47.81-4.47Q47.75-3.96 47.75-3.48L47.75-3.48Q47.75-2.77 47.95-2.31Q48.14-1.86 48.44-1.58Q48.73-1.31 49.06-1.20Q49.39-1.09 49.67-1.09L49.67-1.09Q50.51-1.09 51.25-1.64Q51.99-2.19 52.62-2.96Q53.24-3.73 53.74-4.59Q54.24-5.45 54.57-6.09L54.57-6.09Q54.67-6.27 54.84-6.37Q55.02-6.46 55.21-6.46L55.21-6.46Q55.57-6.46 55.76-6.24Q55.96-6.02 55.96-5.74L55.96-5.74Q55.96-5.55 55.88-5.39L55.88-5.39Q55.43-4.59 54.83-3.58Q54.24-2.58 53.48-1.70Q52.71-0.82 51.77-0.21Q50.82 0.39 49.69 0.39L49.69 0.39Q48.98 0.39 48.36 0.13Q47.73-0.14 47.28-0.63Q46.82-1.13 46.54-1.87Q46.27-2.60 46.27-3.52L46.27-3.52Q46.27-4.49 46.46-5.46Q46.66-6.43 46.66-7.30L46.66-7.30Q46.66-7.68 46.49-7.86Q46.33-8.05 45.76-8.05L45.76-8.05Q45.49-8.05 45.17-8.05Q44.84-8.05 44.47-8.03ZM42.30-9.47L43.16-9.47Q43.16-9.61 43.15-9.83Q43.14-10.06 43.12-10.27Q43.09-10.49 43.04-10.64Q42.99-10.80 42.93-10.80L42.93-10.80Q42.87-10.80 42.78-10.65Q42.70-10.51 42.60-10.30Q42.50-10.10 42.42-9.86Q42.34-9.63 42.30-9.47L42.30-9.47Z M64.57-5.45L64.57-5.45Q64.57-3.65 63.93-2.38Q63.28-1.11 62.34-0.45L62.34-0.45L62.42-0.45Q63.57-0.45 64.52-0.97Q65.47-1.48 66.23-2.29Q66.99-3.11 67.60-4.10Q68.20-5.10 68.67-6.04L68.67-6.04Q68.77-6.25 68.96-6.37Q69.14-6.48 69.36-6.48L69.36-6.48Q69.69-6.48 69.88-6.25Q70.08-6.02 70.08-5.74L70.08-5.74Q70.08-5.59 70.02-5.45L70.02-5.45Q69.51-4.32 68.81-3.17Q68.11-2.03 67.17-1.11Q66.23-0.20 65.06 0.38Q63.89 0.96 62.46 0.96L62.46 0.96Q61.43 0.96 60.45 0.63Q59.47 0.31 58.73-0.37L58.73-0.37Q58.46-0.59 58.26-0.83Q58.07-1.07 57.95-1.29L57.95-1.29Q57.91-1.33 57.91-1.37L57.91-1.37Q57.79-1.54 57.79-1.74L57.79-1.74Q57.79-1.99 57.97-2.21L57.97-2.21Q57.99-2.25 58.01-2.26Q58.03-2.27 58.05-2.29L58.05-2.29Q58.24-2.46 58.48-2.48L58.48-2.48L58.54-2.48Q58.63-2.48 58.67-2.46L58.67-2.46Q58.69-2.46 58.70-2.45Q58.71-2.44 58.73-2.44L58.73-2.44Q58.79-2.44 58.87-2.40L58.87-2.40Q58.89-2.38 58.91-2.38L58.91-2.38Q59.08-2.27 59.20-2.09L59.20-2.09Q59.34-1.86 59.51-1.66L59.51-1.66Q59.67-1.50 59.88-1.38Q60.10-1.25 60.37-1.25L60.37-1.25Q60.86-1.25 61.35-1.54Q61.84-1.84 62.23-2.38Q62.62-2.93 62.86-3.71Q63.11-4.49 63.11-5.45L63.11-5.45Q63.11-6.15 62.96-6.65Q62.81-7.15 62.59-7.46Q62.36-7.77 62.11-7.92Q61.86-8.07 61.62-8.07L61.62-8.07Q61.09-8.07 60.56-7.52Q60.02-6.97 59.49-6.13Q58.96-5.29 58.45-4.28Q57.93-3.26 57.40-2.30L57.40-2.30Q57.36 0.86 57.29 3.73Q57.23 6.60 57.06 9.06Q56.89 11.52 56.60 13.52Q56.31 15.51 55.80 16.92Q55.29 18.34 54.55 19.10Q53.81 19.86 52.73 19.86L52.73 19.86Q52.40 19.86 51.97 19.73Q51.54 19.59 51.17 19.17Q50.80 18.75 50.55 17.97Q50.29 17.19 50.29 15.88L50.29 15.88Q50.29 14.22 50.70 12.03Q51.11 9.84 51.87 7.39Q52.62 4.94 53.65 2.36Q54.69-0.21 55.94-2.66L55.94-2.66Q55.94-3.34 55.95-4.00Q55.96-4.67 55.96-5.29L55.96-5.29Q55.70-5 55.35-5L55.35-5Q55.02-5 54.82-5.23Q54.63-5.47 54.63-5.74L54.63-5.74Q54.63-5.88 54.69-6.04L54.69-6.04Q55.16-7.11 55.41-8.08Q55.66-9.04 55.79-9.78Q55.92-10.51 55.94-10.94Q55.96-11.37 55.96-11.39L55.96-11.39Q55.96-11.68 56.17-11.89Q56.39-12.11 56.70-12.11L56.70-12.11Q56.99-12.11 57.21-11.90Q57.42-11.70 57.42-11.39L57.42-11.39L57.42-5.39Q57.87-6.15 58.32-6.89Q58.77-7.64 59.27-8.22Q59.77-8.81 60.34-9.17Q60.92-9.53 61.62-9.53L61.62-9.53Q62.29-9.53 62.83-9.22Q63.38-8.91 63.77-8.36Q64.16-7.81 64.37-7.06Q64.57-6.31 64.57-5.45ZM55.90 0.82L55.90 0.82Q54.94 2.97 54.17 5.14Q53.40 7.30 52.86 9.32Q52.32 11.33 52.03 13.09Q51.74 14.84 51.74 16.17L51.74 16.17Q51.74 16.50 51.78 16.89Q51.82 17.29 51.93 17.62Q52.05 17.95 52.27 18.17Q52.48 18.40 52.83 18.40L52.83 18.40Q53.48 18.40 53.95 17.59Q54.41 16.78 54.74 15.40Q55.06 14.02 55.27 12.24Q55.49 10.45 55.62 8.50Q55.74 6.54 55.80 4.56Q55.86 2.58 55.90 0.82Z M70.72-8.03L70.72-8.03Q70.64-7.50 70.53-7.04Q70.41-6.58 70.30-6.24Q70.20-5.90 70.12-5.68Q70.04-5.47 70.02-5.45L70.02-5.45Q69.82-5 69.34-5L69.34-5Q69.06-5 68.83-5.21Q68.59-5.41 68.59-5.72L68.59-5.72Q68.59-5.84 68.63-5.90Q68.67-5.96 68.75-6.13Q68.83-6.31 68.95-6.72Q69.06-7.13 69.24-7.99L69.24-7.99Q68.91-7.99 68.55-8.01Q68.20-8.03 67.90-8.14Q67.60-8.26 67.40-8.52Q67.21-8.77 67.21-9.22L67.21-9.22Q67.21-9.55 67.39-10.12Q67.58-10.68 67.89-11.23Q68.20-11.78 68.59-12.18Q68.98-12.58 69.38-12.58L69.38-12.58Q69.82-12.58 70.11-12.25Q70.39-11.91 70.55-11.44Q70.70-10.96 70.77-10.43Q70.84-9.90 70.84-9.51L70.84-9.51Q71.17-9.51 71.49-9.52Q71.82-9.53 72.11-9.53L72.11-9.53Q73.22-9.53 73.81-9.04Q74.39-8.55 74.39-7.44L74.39-7.44Q74.39-6.99 74.34-6.50Q74.28-6.02 74.20-5.50Q74.12-4.98 74.06-4.47Q74.00-3.96 74.00-3.48L74.00-3.48Q74.00-2.77 74.20-2.31Q74.39-1.86 74.69-1.58Q74.98-1.31 75.31-1.20Q75.64-1.09 75.92-1.09L75.92-1.09Q76.76-1.09 77.50-1.64Q78.24-2.19 78.87-2.96Q79.49-3.73 79.99-4.59Q80.49-5.45 80.82-6.09L80.82-6.09Q80.92-6.27 81.09-6.37Q81.27-6.46 81.46-6.46L81.46-6.46Q81.82-6.46 82.01-6.24Q82.21-6.02 82.21-5.74L82.21-5.74Q82.21-5.55 82.13-5.39L82.13-5.39Q81.68-4.59 81.08-3.58Q80.49-2.58 79.73-1.70Q78.96-0.82 78.02-0.21Q77.07 0.39 75.94 0.39L75.94 0.39Q75.23 0.39 74.61 0.13Q73.98-0.14 73.53-0.63Q73.07-1.13 72.79-1.87Q72.52-2.60 72.52-3.52L72.52-3.52Q72.52-4.49 72.71-5.46Q72.91-6.43 72.91-7.30L72.91-7.30Q72.91-7.68 72.74-7.86Q72.58-8.05 72.01-8.05L72.01-8.05Q71.74-8.05 71.42-8.05Q71.09-8.05 70.72-8.03ZM68.55-9.47L69.41-9.47Q69.41-9.61 69.40-9.83Q69.39-10.06 69.37-10.27Q69.34-10.49 69.29-10.64Q69.24-10.80 69.18-10.80L69.18-10.80Q69.12-10.80 69.03-10.65Q68.95-10.51 68.85-10.30Q68.75-10.10 68.67-9.86Q68.59-9.63 68.55-9.47L68.55-9.47Z M89.80-2.15L89.80-2.15Q89.32-2.15 88.95-2.23L88.95-2.23Q88.65-1.64 88.24-1.14Q87.83-0.64 87.29-0.27Q86.76 0.10 86.09 0.31Q85.43 0.53 84.65 0.53L84.65 0.53Q83.73 0.53 82.97 0.21Q82.21-0.12 81.64-0.69Q81.07-1.27 80.76-2.08Q80.45-2.89 80.45-3.87L80.45-3.87Q80.45-5.12 80.90-6.04Q81.35-6.97 81.93-7.59Q82.52-8.20 83.11-8.51Q83.69-8.81 83.98-8.81L83.98-8.81Q84.32-8.81 84.48-8.63Q84.65-8.46 84.65-8.16L84.65-8.16Q84.65-7.83 84.44-7.67Q84.24-7.50 83.93-7.34L83.93-7.34Q83.61-7.19 83.26-6.90Q82.91-6.62 82.61-6.19Q82.30-5.76 82.11-5.18Q81.91-4.59 81.91-3.87L81.91-3.87Q81.91-3.22 82.11-2.67Q82.30-2.11 82.68-1.71Q83.05-1.31 83.55-1.08Q84.06-0.86 84.69-0.86L84.69-0.86Q85.80-0.86 86.53-1.38Q87.27-1.89 87.66-2.70L87.66-2.70Q86.50-3.30 85.76-4.41Q85.02-5.53 85.02-6.91L85.02-6.91Q85.02-8.03 85.56-8.73Q86.09-9.43 86.97-9.43L86.97-9.43Q87.50-9.43 87.97-9.18Q88.44-8.93 88.80-8.38Q89.16-7.83 89.38-6.97Q89.59-6.11 89.59-4.92L89.59-4.92Q89.59-4.30 89.43-3.61L89.43-3.61Q89.55-3.59 89.67-3.59Q89.79-3.59 89.92-3.59L89.92-3.59Q90.59-3.59 91.11-3.75Q91.64-3.91 92.07-4.22Q92.50-4.53 92.84-5.02Q93.18-5.51 93.50-6.15L93.50-6.15Q93.55-6.27 93.75-6.38Q93.95-6.48 94.14-6.48L94.14-6.48Q94.39-6.48 94.62-6.28Q94.84-6.07 94.84-5.74L94.84-5.74Q94.84-5.59 94.77-5.40Q94.69-5.21 94.61-5.06L94.61-5.06Q94.28-4.47 93.84-3.94Q93.40-3.40 92.80-3.00Q92.21-2.60 91.46-2.36Q90.72-2.13 89.80-2.15ZM86.46-7.07L86.46-7.07Q86.46-6.70 86.56-6.29Q86.66-5.88 86.87-5.48Q87.07-5.08 87.37-4.72Q87.68-4.36 88.09-4.10L88.09-4.10Q88.14-4.51 88.14-4.90L88.14-4.90Q88.14-5.43 88.07-5.98Q87.99-6.52 87.84-6.98Q87.70-7.44 87.48-7.72Q87.27-8.01 86.97-8.01L86.97-8.01Q86.86-8.01 86.66-7.83Q86.46-7.66 86.46-7.07Z M108.54-5.45L108.54-5.45Q108.46-5.29 108.21-4.79Q107.97-4.30 107.59-3.65Q107.21-3.01 106.70-2.30Q106.19-1.60 105.57-1.02Q104.94-0.43 104.22-0.05Q103.50 0.33 102.70 0.33L102.70 0.33Q101.56 0.33 100.79-0.39Q100.02-1.11 99.67-2.21L99.67-2.21Q99.00-1.09 98.09-0.44Q97.17 0.21 96.25 0.21L96.25 0.21Q95.53 0.21 94.94-0.05Q94.36-0.31 93.95-0.79Q93.54-1.27 93.31-1.91Q93.09-2.56 93.09-3.32L93.09-3.32Q93.09-4.84 93.60-6.01Q94.12-7.17 94.92-7.95Q95.72-8.73 96.69-9.12Q97.66-9.51 98.55-9.51L98.55-9.51Q99.16-9.51 99.67-9.35Q100.18-9.18 100.54-8.98Q100.90-8.79 101.09-8.62Q101.29-8.46 101.31-8.44L101.31-8.44Q101.52-8.18 101.52-7.91L101.52-7.91Q101.52-7.62 101.31-7.39Q101.09-7.17 100.80-7.17L100.80-7.17Q100.49-7.17 100.27-7.38L100.27-7.38Q100.23-7.42 100.10-7.53Q99.96-7.64 99.73-7.75Q99.49-7.87 99.17-7.96Q98.85-8.05 98.44-8.05L98.44-8.05Q97.83-8.05 97.15-7.77Q96.46-7.50 95.90-6.92Q95.33-6.35 94.95-5.48Q94.57-4.61 94.57-3.42L94.57-3.42Q94.57-3.05 94.65-2.67Q94.73-2.29 94.92-1.97Q95.12-1.66 95.45-1.46Q95.78-1.27 96.27-1.27L96.27-1.27Q96.62-1.27 97.08-1.50Q97.54-1.74 97.96-2.23Q98.38-2.71 98.72-3.46Q99.06-4.20 99.20-5.21L99.20-5.21Q99.24-5.49 99.45-5.67Q99.67-5.86 99.96-5.86L99.96-5.86Q100.23-5.86 100.44-5.64Q100.64-5.43 100.66-5.16L100.66-5.16Q100.68-4.79 100.74-4.11Q100.80-3.44 101.01-2.77Q101.21-2.11 101.62-1.62Q102.03-1.13 102.75-1.13L102.75-1.13Q103.22-1.13 103.68-1.39Q104.14-1.64 104.58-2.06Q105.02-2.48 105.42-3.02Q105.82-3.55 106.15-4.10Q106.48-4.65 106.74-5.16Q106.99-5.66 107.17-6.04L107.17-6.04Q107.27-6.25 107.45-6.37Q107.64-6.48 107.85-6.48L107.85-6.48Q108.18-6.48 108.39-6.24Q108.59-6.00 108.59-5.72L108.59-5.72Q108.59-5.59 108.54-5.45Z M114.26 1.91L114.26 1.91Q117.93-2.87 119.36-6.04L119.36-6.04Q119.45-6.25 119.62-6.36Q119.79-6.46 120-6.46L120-6.46Q120.33-6.46 120.55-6.24Q120.76-6.02 120.76-5.72L120.76-5.72Q120.76-5.59 120.70-5.45L120.70-5.45Q119.84-3.50 118.26-1.09Q116.68 1.31 114.26 4.34L114.26 4.34Q114.26 5.57 114.28 6.80Q114.30 8.03 114.30 9.49L114.30 9.49Q114.30 10.96 114.23 12.39Q114.16 13.83 113.98 15.13Q113.81 16.43 113.51 17.53Q113.20 18.63 112.72 19.44Q112.25 20.25 111.57 20.71Q110.90 21.17 109.98 21.17L109.98 21.17Q108.67 21.17 107.97 20.18Q107.27 19.18 107.27 17.34L107.27 17.34Q107.27 16.37 107.45 15.22Q107.64 14.08 107.99 12.87Q108.34 11.66 108.84 10.42Q109.34 9.18 109.94 8.01Q110.55 6.84 111.26 5.76Q111.97 4.69 112.77 3.81L112.77 3.81Q112.79 2.44 112.80 1.09Q112.81-0.25 112.85-1.39L112.85-1.39Q112.27-0.64 111.46-0.21Q110.64 0.21 109.84 0.21L109.84 0.21Q109.16 0.21 108.60-0.05Q108.05-0.31 107.66-0.79Q107.27-1.27 107.05-1.91Q106.84-2.56 106.84-3.32L106.84-3.32Q106.84-4.84 107.35-6.01Q107.87-7.17 108.67-7.95Q109.47-8.73 110.44-9.12Q111.41-9.51 112.30-9.51L112.30-9.51Q112.91-9.51 113.42-9.36Q113.93-9.20 114.29-9.00Q114.65-8.81 114.84-8.63Q115.04-8.46 115.06-8.44L115.06-8.44Q115.27-8.20 115.27-7.91L115.27-7.91Q115.27-7.62 115.06-7.39Q114.84-7.17 114.55-7.17L114.55-7.17Q114.28-7.17 114.02-7.38L114.02-7.38Q113.95-7.44 113.82-7.55Q113.69-7.66 113.49-7.77Q113.28-7.89 113.00-7.97Q112.71-8.05 112.32-8.05L112.32-8.05Q111.74-8.05 111.04-7.78Q110.33-7.52 109.73-6.95Q109.12-6.39 108.71-5.50Q108.30-4.61 108.30-3.36L108.30-3.36Q108.30-2.42 108.71-1.85Q109.12-1.27 109.98-1.27L109.98-1.27Q110.39-1.27 110.85-1.50Q111.31-1.74 111.74-2.23Q112.17-2.71 112.49-3.46Q112.81-4.20 112.95-5.21L112.95-5.21Q112.99-5.49 113.20-5.67Q113.42-5.86 113.71-5.86L113.71-5.86Q114.04-5.86 114.23-5.63Q114.41-5.39 114.41-5.10L114.41-5.10Q114.41-5.08 114.39-4.50Q114.38-3.93 114.36-2.97Q114.34-2.01 114.31-0.75Q114.28 0.51 114.26 1.91ZM112.77 6.19L112.77 6.19Q111.86 7.46 111.11 8.96Q110.37 10.45 109.84 11.97Q109.32 13.50 109.03 14.93Q108.75 16.37 108.75 17.50L108.75 17.50Q108.75 18.22 108.88 18.65Q109.00 19.08 109.19 19.32Q109.38 19.55 109.60 19.63Q109.82 19.71 110.02 19.71L110.02 19.71Q110.63 19.71 111.07 19.22Q111.52 18.73 111.84 17.92Q112.15 17.11 112.34 16.05Q112.54 15 112.64 13.88Q112.73 12.75 112.77 11.64Q112.81 10.53 112.81 9.59L112.81 9.59Q112.81 8.75 112.81 7.91Q112.81 7.07 112.77 6.19Z M122.54-15.33L122.54-15.33Q122.54-14.59 122.02-14.07Q121.50-13.55 120.76-13.55L120.76-13.55Q120.02-13.55 119.50-14.07Q118.98-14.59 118.98-15.33L118.98-15.33Q118.98-15.70 119.12-16.03Q119.26-16.35 119.50-16.59Q119.75-16.84 120.07-16.97Q120.39-17.11 120.76-17.11L120.76-17.11Q121.13-17.11 121.46-16.97Q121.78-16.84 122.02-16.59Q122.27-16.35 122.40-16.03Q122.54-15.70 122.54-15.33ZM119.38-3.89L119.38-3.89Q119.38-6.70 119.73-9.49L119.73-9.49Q119.77-9.77 119.97-9.97Q120.18-10.18 120.51-10.18L120.51-10.18Q120.80-10.18 121.00-9.95Q121.19-9.73 121.19-9.43L121.19-9.43Q121.19-9.32 121.14-8.73Q121.09-8.14 121.03-7.33Q120.96-6.52 120.91-5.62Q120.86-4.71 120.86-3.95L120.86-3.95Q120.86-2.91 121.06-2.28Q121.27-1.64 121.59-1.29Q121.91-0.94 122.28-0.82Q122.64-0.70 122.97-0.70L122.97-0.70Q123.52-0.70 124.10-1.09Q124.69-1.48 125.30-2.19Q125.92-2.89 126.54-3.88Q127.17-4.86 127.77-6.07L127.77-6.07Q127.87-6.27 128.05-6.38Q128.22-6.48 128.44-6.48L128.44-6.48Q128.75-6.48 128.96-6.25Q129.16-6.02 129.16-5.74L129.16-5.74Q129.16-5.55 129.08-5.41L129.08-5.41Q128.85-4.96 128.50-4.32Q128.14-3.67 127.70-2.99Q127.25-2.30 126.71-1.63Q126.17-0.96 125.57-0.42Q124.96 0.12 124.30 0.45Q123.63 0.78 122.95 0.78L122.95 0.78Q122.07 0.78 121.41 0.41Q120.74 0.04 120.28-0.59Q119.82-1.21 119.60-2.06Q119.38-2.91 119.38-3.89ZM121.45-15.33L121.45-15.33Q121.45-15.61 121.24-15.81Q121.04-16.02 120.76-16.02L120.76-16.02Q120.49-16.02 120.29-15.81Q120.10-15.61 120.10-15.33L120.10-15.33Q120.10-15.06 120.29-14.86Q120.49-14.67 120.76-14.67L120.76-14.67Q121.04-14.67 121.24-14.86Q121.45-15.06 121.45-15.33Z M132.09-1.76L132.09-1.76Q132.40-2.40 132.81-3.17Q133.22-3.95 133.69-4.74Q134.16-5.53 134.68-6.31Q135.20-7.09 135.76-7.79L135.76-7.79Q136.33-8.48 136.90-8.78Q137.48-9.08 137.99-9.08L137.99-9.08Q139.00-9.08 139.49-8.34Q139.98-7.60 139.98-6.50L139.98-6.50Q139.98-6.25 139.95-5.89Q139.92-5.53 139.89-5.12Q139.86-4.71 139.83-4.29Q139.80-3.87 139.80-3.50L139.80-3.50Q139.80-3.03 139.85-2.60Q139.90-2.17 140.04-1.85Q140.18-1.52 140.43-1.34Q140.68-1.15 141.09-1.15L141.09-1.15Q141.84-1.15 142.54-1.73Q143.24-2.30 143.84-3.10Q144.43-3.89 144.87-4.71Q145.31-5.53 145.53-6.04L145.53-6.04Q145.63-6.25 145.81-6.37Q146.00-6.48 146.21-6.48L146.21-6.48Q146.54-6.48 146.75-6.24Q146.95-6.00 146.95-5.72L146.95-5.72Q146.95-5.59 146.89-5.45L146.89-5.45Q146.82-5.29 146.58-4.80Q146.35-4.32 145.97-3.68Q145.59-3.05 145.08-2.33Q144.57-1.62 143.96-1.04Q143.34-0.45 142.63-0.06Q141.91 0.33 141.13 0.33L141.13 0.33Q140.25 0.33 139.71-0.01Q139.16-0.35 138.85-0.91Q138.54-1.46 138.43-2.14Q138.32-2.81 138.32-3.50L138.32-3.50Q138.32-3.79 138.35-4.16Q138.38-4.53 138.43-4.94Q138.48-5.35 138.51-5.76Q138.54-6.17 138.54-6.54L138.54-6.54Q138.54-7.17 138.34-7.39Q138.14-7.62 137.99-7.62L137.99-7.62Q137.68-7.62 137.28-7.26Q136.88-6.89 136.44-6.31Q136.00-5.72 135.54-4.99Q135.08-4.26 134.68-3.54Q134.28-2.81 133.94-2.16Q133.59-1.50 133.40-1.07L133.40-1.07Q133.01-0.25 132.62 0.03Q132.23 0.31 131.82 0.31L131.82 0.31Q131.25 0.31 130.91-0.03Q130.57-0.37 130.57-1.00L130.57-1.00Q130.57-1.13 130.61-1.53Q130.64-1.93 130.70-2.49Q130.76-3.05 130.82-3.69Q130.88-4.34 130.94-4.97Q131.00-5.61 131.04-6.15Q131.07-6.70 131.07-7.07L131.07-7.07Q131.07-7.56 131.04-8.01Q131.00-8.46 130.88-8.55L130.88-8.55Q130.70-8.50 130.25-7.82Q129.80-7.15 129.10-5.45L129.10-5.45Q129.00-5.23 128.81-5.12Q128.61-5 128.40-5L128.40-5Q128.07-5 127.87-5.22Q127.68-5.45 127.68-5.74L127.68-5.74Q127.68-5.88 127.73-6.04L127.73-6.04Q128.61-8.13 129.38-9.11Q130.16-10.10 130.92-10.10L130.92-10.10Q131.37-10.10 131.68-9.87Q131.99-9.65 132.18-9.28Q132.36-8.91 132.45-8.46Q132.54-8.01 132.54-7.54L132.54-7.54Q132.54-7.19 132.49-6.45Q132.44-5.70 132.36-4.85Q132.29-4.00 132.22-3.16Q132.15-2.32 132.09-1.76Z M152.62 1.91L152.62 1.91Q156.29-2.87 157.71-6.04L157.71-6.04Q157.81-6.25 157.98-6.36Q158.14-6.46 158.36-6.46L158.36-6.46Q158.69-6.46 158.91-6.24Q159.12-6.02 159.12-5.72L159.12-5.72Q159.12-5.59 159.06-5.45L159.06-5.45Q158.20-3.50 156.62-1.09Q155.04 1.31 152.62 4.34L152.62 4.34Q152.62 5.57 152.64 6.80Q152.66 8.03 152.66 9.49L152.66 9.49Q152.66 10.96 152.59 12.39Q152.52 13.83 152.34 15.13Q152.17 16.43 151.87 17.53Q151.56 18.63 151.08 19.44Q150.61 20.25 149.93 20.71Q149.26 21.17 148.34 21.17L148.34 21.17Q147.03 21.17 146.33 20.18Q145.63 19.18 145.63 17.34L145.63 17.34Q145.63 16.37 145.81 15.22Q146.00 14.08 146.35 12.87Q146.70 11.66 147.20 10.42Q147.70 9.18 148.30 8.01Q148.91 6.84 149.62 5.76Q150.33 4.69 151.13 3.81L151.13 3.81Q151.15 2.44 151.16 1.09Q151.17-0.25 151.21-1.39L151.21-1.39Q150.63-0.64 149.81-0.21Q149.00 0.21 148.20 0.21L148.20 0.21Q147.52 0.21 146.96-0.05Q146.41-0.31 146.02-0.79Q145.63-1.27 145.41-1.91Q145.20-2.56 145.20-3.32L145.20-3.32Q145.20-4.84 145.71-6.01Q146.23-7.17 147.03-7.95Q147.83-8.73 148.80-9.12Q149.77-9.51 150.66-9.51L150.66-9.51Q151.27-9.51 151.78-9.36Q152.29-9.20 152.65-9.00Q153.01-8.81 153.20-8.63Q153.40-8.46 153.42-8.44L153.42-8.44Q153.63-8.20 153.63-7.91L153.63-7.91Q153.63-7.62 153.42-7.39Q153.20-7.17 152.91-7.17L152.91-7.17Q152.64-7.17 152.38-7.38L152.38-7.38Q152.30-7.44 152.18-7.55Q152.05-7.66 151.85-7.77Q151.64-7.89 151.36-7.97Q151.07-8.05 150.68-8.05L150.68-8.05Q150.10-8.05 149.39-7.78Q148.69-7.52 148.09-6.95Q147.48-6.39 147.07-5.50Q146.66-4.61 146.66-3.36L146.66-3.36Q146.66-2.42 147.07-1.85Q147.48-1.27 148.34-1.27L148.34-1.27Q148.75-1.27 149.21-1.50Q149.67-1.74 150.10-2.23Q150.53-2.71 150.85-3.46Q151.17-4.20 151.31-5.21L151.31-5.21Q151.35-5.49 151.56-5.67Q151.78-5.86 152.07-5.86L152.07-5.86Q152.40-5.86 152.59-5.63Q152.77-5.39 152.77-5.10L152.77-5.10Q152.77-5.08 152.75-4.50Q152.73-3.93 152.71-2.97Q152.70-2.01 152.67-0.75Q152.64 0.51 152.62 1.91ZM151.13 6.19L151.13 6.19Q150.21 7.46 149.47 8.96Q148.73 10.45 148.20 11.97Q147.68 13.50 147.39 14.93Q147.11 16.37 147.11 17.50L147.11 17.50Q147.11 18.22 147.24 18.65Q147.36 19.08 147.55 19.32Q147.73 19.55 147.96 19.63Q148.18 19.71 148.38 19.71L148.38 19.71Q148.98 19.71 149.43 19.22Q149.88 18.73 150.20 17.92Q150.51 17.11 150.70 16.05Q150.90 15 151.00 13.88Q151.09 12.75 151.13 11.64Q151.17 10.53 151.17 9.59L151.17 9.59Q151.17 8.75 151.17 7.91Q151.17 7.07 151.13 6.19Z"/></g>
</svg>
</g></svg>